<svg width="32" height="32" viewBox="0 0 32 32" fill="none" xmlns="http://www.w3.org/2000/svg">
<path d="M0 0H6V2H2V8H0V0Z" fill="#1A1A1A"/>
<path d="M6 0H26V2H24V6H22V4H8V2H6V0Z" fill="none"/>
<path d="M26 0H32V8H30V2H26V0Z" fill="#1A1A1A"/>
<path d="M2 2H6V4H8V6H6V8H2V2Z" fill="white"/>
<path d="M6 2H8V4H6V2Z" fill="#1A1A1A"/>
<path d="M24 2H26V10H24V8H22V6H24V2Z" fill="#1A1A1A"/>
<path d="M26 2H30V8H28V10H26V2Z" fill="white"/>
<path d="M8 4H22V6H8V4Z" fill="#1A1A1A"/>
<path d="M6 6H8V8H6V6Z" fill="#1A1A1A"/>
<path d="M8 6H22V8H24V10H26V12H28V20H26V24H22V26H10V24H6V20H4V12H6V8H8V6Z" fill="white"/>
<path d="M0 8H2V10H4V12H2V20H4V22H2V24H0V8Z" fill="none"/>
<path d="M2 8H6V12H4V10H2V8Z" fill="#1A1A1A"/>
<path d="M14 8H16V10H14V8Z" fill="#1A1A1A"/>
<path d="M18 8H20V10H18V8Z" fill="#1A1A1A"/>
<path d="M28 8H30V10H28V8Z" fill="#1A1A1A"/>
<path d="M30 8H32V24H30V22H28V20H30V12H28V10H30V8Z" fill="none"/>
<path d="M26 10H28V12H26V10Z" fill="#1A1A1A"/>
<path d="M2 12H4V20H2V12Z" fill="#1A1A1A"/>
<path d="M14 12H20V16H18V20H22V22H12V20H16V16H14V12Z" fill="#1A1A1A"/>
<path d="M28 12H30V20H28V12Z" fill="#1A1A1A"/>
<path d="M10 18H12V20H10V18Z" fill="#1A1A1A"/>
<path d="M22 18H24V20H22V18Z" fill="#1A1A1A"/>
<path d="M4 20H6V24H2V22H4V20Z" fill="#1A1A1A"/>
<path d="M26 20H28V22H30V24H26V20Z" fill="#1A1A1A"/>
<path d="M0 24H2V26H0V24Z" fill="#1A1A1A"/>
<path d="M2 24H6V26H10V28H22V26H26V24H30V26H28V28H24V30H8V28H4V26H2V24Z" fill="white"/>
<path d="M6 24H10V26H6V24Z" fill="#1A1A1A"/>
<path d="M22 24H26V26H22V24Z" fill="#1A1A1A"/>
<path d="M30 24H32V26H30V24Z" fill="#1A1A1A"/>
<path d="M0 26H2V28H4V30H8V32H0V26Z" fill="none"/>
<path d="M2 26H4V28H2V26Z" fill="#1A1A1A"/>
<path d="M10 26H22V28H10V26Z" fill="#1A1A1A"/>
<path d="M28 26H30V28H28V26Z" fill="#1A1A1A"/>
<path d="M30 26H32V32H24V30H28V28H30V26Z" fill="none"/>
<path d="M4 28H8V30H4V28Z" fill="#1A1A1A"/>
<path d="M24 28H28V30H24V28Z" fill="#1A1A1A"/>
<path d="M8 30H24V32H8V30Z" fill="#1A1A1A"/>
</svg>
