<svg width="32" height="32" viewBox="0 0 32 32" fill="none" xmlns="http://www.w3.org/2000/svg">
<path d="M0 0H4V2H2V6H4V10H2V12H0V0Z" fill="#1A1A1A"/>
<path d="M4 0H26V2H24V4H22V6H8V4H6V2H4V0Z" fill="none"/>
<path d="M26 0H30V12H28V10H26V6H28V2H26V0Z" fill="#1A1A1A"/>
<path d="M30 0H32V32H0V24H2V26H6V28H12V30H18V28H24V26H28V24H30V16H28V12H30V0Z" fill="none"/>
<path d="M2 2H4V4H6V6H8V8H6V10H8V8H12V10H14V12H16V10H18V8H22V10H24V8H22V6H24V4H26V2H28V6H26V10H28V12H26V14H24V12H18V16H16V18H14V16H12V12H6V14H4V12H2V10H4V6H2V2Z" fill="white"/>
<path d="M4 2H6V4H4V2Z" fill="#1A1A1A"/>
<path d="M24 2H26V4H24V2Z" fill="#1A1A1A"/>
<path d="M6 4H8V6H6V4Z" fill="#1A1A1A"/>
<path d="M22 4H24V6H22V4Z" fill="#1A1A1A"/>
<path d="M8 6H22V8H18V10H16V8H14V10H12V8H8V6Z" fill="#1A1A1A"/>
<path d="M6 8H8V10H6V8Z" fill="#1A1A1A"/>
<path d="M14 8H16V10H14V8Z" fill="white"/>
<path d="M22 8H24V10H22V8Z" fill="#1A1A1A"/>
<path d="M14 10H16V12H14V10Z" fill="#1A1A1A"/>
<path d="M0 12H2V16H0V12Z" fill="white"/>
<path d="M2 12H4V14H6V16H2V12Z" fill="#1A1A1A"/>
<path d="M6 12H12V16H8V14H6V12Z" fill="#1A1A1A"/>
<path d="M18 12H24V14H22V16H18V12Z" fill="#1A1A1A"/>
<path d="M26 12H28V16H24V14H26V12Z" fill="#1A1A1A"/>
<path d="M6 14H8V16H12V18H14V20H10V22H12V24H14V26H16V24H18V22H20V20H16V18H18V16H22V14H24V16H28V18H22V20H28V24H26V22H22V24H24V26H18V28H12V26H6V24H8V22H4V24H2V20H8V18H2V16H6V14Z" fill="white"/>
<path d="M0 16H2V18H8V20H2V24H0V16Z" fill="#1A1A1A"/>
<path d="M12 16H14V18H12V16Z" fill="#1A1A1A"/>
<path d="M16 16H18V18H16V16Z" fill="#1A1A1A"/>
<path d="M28 16H30V24H28V20H22V18H28V16Z" fill="#1A1A1A"/>
<path d="M14 18H16V20H20V22H18V24H16V22H14V24H12V22H10V20H14V18Z" fill="#1A1A1A"/>
<path d="M4 22H8V24H6V26H2V24H4V22Z" fill="#1A1A1A"/>
<path d="M14 22H16V24H14V22Z" fill="white"/>
<path d="M22 22H26V24H28V26H24V24H22V22Z" fill="#1A1A1A"/>
<path d="M14 24H16V26H14V24Z" fill="#1A1A1A"/>
<path d="M6 26H12V28H6V26Z" fill="#1A1A1A"/>
<path d="M18 26H24V28H18V26Z" fill="#1A1A1A"/>
<path d="M12 28H18V30H12V28Z" fill="#1A1A1A"/>
</svg>
