<svg width="32" height="32" viewBox="0 0 32 32" fill="none" xmlns="http://www.w3.org/2000/svg">
<path d="M0 0H8V2H4V4H2V6H0V0Z" fill="none"/>
<path d="M8 0H12V2H8V0Z" fill="#1A1A1A"/>
<path d="M12 0H20V2H12V0Z" fill="none"/>
<path d="M20 0H24V2H20V0Z" fill="#1A1A1A"/>
<path d="M24 0H32V6H30V4H28V2H24V0Z" fill="none"/>
<path d="M4 2H8V4H4V2Z" fill="#1A1A1A"/>
<path d="M8 2H12V4H14V6H18V4H20V2H24V4H28V6H30V12H28V10H26V16H28V22H26V24H22V22H20V20H18V16H14V20H12V22H10V24H6V22H4V16H6V10H4V12H2V6H4V4H8V2Z" fill="white"/>
<path d="M12 2H20V4H18V6H14V4H12V2Z" fill="#1A1A1A"/>
<path d="M24 2H28V4H24V2Z" fill="#1A1A1A"/>
<path d="M2 4H4V6H2V4Z" fill="#1A1A1A"/>
<path d="M28 4H30V6H28V4Z" fill="#1A1A1A"/>
<path d="M0 6H2V12H0V6Z" fill="#1A1A1A"/>
<path d="M30 6H32V12H30V6Z" fill="#1A1A1A"/>
<path d="M4 10H6V16H4V14H2V12H4V10Z" fill="#1A1A1A"/>
<path d="M10 10H12V12H14V14H12V16H8V12H10V10Z" fill="#1A1A1A"/>
<path d="M20 10H22V12H24V16H20V14H18V12H20V10Z" fill="#1A1A1A"/>
<path d="M26 10H28V12H30V14H28V16H26V10Z" fill="#1A1A1A"/>
<path d="M0 12H2V14H4V16H2V22H0V12Z" fill="none"/>
<path d="M30 12H32V22H30V16H28V14H30V12Z" fill="none"/>
<path d="M2 16H4V22H2V16Z" fill="#1A1A1A"/>
<path d="M14 16H18V20H20V22H12V20H14V16Z" fill="#1A1A1A"/>
<path d="M28 16H30V22H28V16Z" fill="#1A1A1A"/>
<path d="M0 22H2V26H0V22Z" fill="#1A1A1A"/>
<path d="M2 22H4V24H6V26H10V24H12V26H20V24H22V26H26V24H28V22H30V26H28V28H24V30H8V28H4V26H2V22Z" fill="white"/>
<path d="M4 22H6V24H4V22Z" fill="#1A1A1A"/>
<path d="M10 22H12V24H10V22Z" fill="#1A1A1A"/>
<path d="M12 22H20V24H12V22Z" fill="white"/>
<path d="M20 22H22V24H20V22Z" fill="#1A1A1A"/>
<path d="M26 22H28V24H26V22Z" fill="#1A1A1A"/>
<path d="M30 22H32V26H30V22Z" fill="#1A1A1A"/>
<path d="M6 24H10V26H6V24Z" fill="#1A1A1A"/>
<path d="M12 24H20V26H12V24Z" fill="#1A1A1A"/>
<path d="M22 24H26V26H22V24Z" fill="#1A1A1A"/>
<path d="M0 26H2V28H4V30H8V32H0V26Z" fill="none"/>
<path d="M2 26H4V28H2V26Z" fill="#1A1A1A"/>
<path d="M28 26H30V28H28V26Z" fill="#1A1A1A"/>
<path d="M30 26H32V32H24V30H28V28H30V26Z" fill="none"/>
<path d="M4 28H8V30H4V28Z" fill="#1A1A1A"/>
<path d="M24 28H28V30H24V28Z" fill="#1A1A1A"/>
<path d="M8 30H24V32H8V30Z" fill="#1A1A1A"/>
</svg>
