<svg width="32" height="32" viewBox="0 0 32 32" fill="none" xmlns="http://www.w3.org/2000/svg">
<path d="M0 0H20V2H2V4H0V0Z" fill="#1A1A1A"/>
<path d="M20 0H32V16H30V14H28V12H26V8H24V4H22V2H20V0Z" fill="none"/>
<path d="M2 2H20V4H22V8H24V14H10V8H20V6H18V4H8V6H6V4H2V2Z" fill="white"/>
<path d="M20 2H22V4H20V2Z" fill="#1A1A1A"/>
<path d="M0 4H2V6H6V8H8V12H4V14H2V16H0V4Z" fill="none"/>
<path d="M2 4H6V6H2V4Z" fill="#1A1A1A"/>
<path d="M8 4H18V6H20V8H10V6H8V4Z" fill="#1A1A1A"/>
<path d="M22 4H24V8H22V4Z" fill="#1A1A1A"/>
<path d="M6 6H8V8H6V6Z" fill="#1A1A1A"/>
<path d="M8 6H10V8H8V6Z" fill="white"/>
<path d="M8 8H10V14H24V8H26V12H28V14H26V16H8V14H4V12H8V8Z" fill="#1A1A1A"/>
<path d="M12 10H22V12H12V10Z" fill="#1A1A1A"/>
<path d="M2 14H4V16H2V14Z" fill="#1A1A1A"/>
<path d="M4 14H8V16H26V14H28V16H30V30H2V16H4V14Z" fill="white"/>
<path d="M28 14H30V16H28V14Z" fill="#1A1A1A"/>
<path d="M0 16H2V30H0V16Z" fill="#1A1A1A"/>
<path d="M30 16H32V30H30V16Z" fill="#1A1A1A"/>
<path d="M6 18H8V20H6V18Z" fill="#1A1A1A"/>
<path d="M10 18H12V20H10V18Z" fill="#1A1A1A"/>
<path d="M18 18H28V24H18V18Z" fill="#1A1A1A"/>
<path d="M8 20H10V22H8V20Z" fill="#1A1A1A"/>
<path d="M10 20H12V22H10V20Z" fill="white"/>
<path d="M12 20H14V22H12V20Z" fill="#1A1A1A"/>
<path d="M20 20H26V22H20V20Z" fill="white"/>
<path d="M6 22H8V24H6V22Z" fill="#1A1A1A"/>
<path d="M8 22H10V24H8V22Z" fill="white"/>
<path d="M10 22H12V24H10V22Z" fill="#1A1A1A"/>
<path d="M8 24H10V26H8V24Z" fill="#1A1A1A"/>
<path d="M12 24H14V26H12V24Z" fill="#1A1A1A"/>
<path d="M18 26H20V28H18V26Z" fill="#1A1A1A"/>
<path d="M22 26H24V28H22V26Z" fill="#1A1A1A"/>
<path d="M26 26H28V28H26V26Z" fill="#1A1A1A"/>
<path d="M0 30H2V32H0V30Z" fill="none"/>
<path d="M2 30H30V32H2V30Z" fill="#1A1A1A"/>
<path d="M30 30H32V32H30V30Z" fill="none"/>
</svg>
