<?xml version="1.0" encoding="UTF-8"?>
<svg xmlns="http://www.w3.org/2000/svg" xmlns:xlink="http://www.w3.org/1999/xlink" width="381.08pt" height="307.26pt" viewBox="0 0 381.08 307.26" version="1.1">
<defs>
<clipPath id="clip1">
  <path d="M 97 17 L 260 17 L 260 307.261719 L 97 307.261719 Z M 97 17 "/>
</clipPath>
<clipPath id="clip2">
  <path d="M 268 16 L 381.078125 16 L 381.078125 307.261719 L 268 307.261719 Z M 268 16 "/>
</clipPath>
</defs>
<g id="surface1">
<g clip-path="url(#clip1)" clip-rule="nonzero">
<path style=" stroke:none;fill-rule:nonzero;fill:rgb(11.799622%,32.199097%,64.299011%);fill-opacity:1;" d="M 217.46875 17.761719 L 217.46875 126.761719 L 175.46875 126.761719 L 175.46875 17.761719 L 159.96875 17.761719 C 167.566406 35.558594 169.667969 58.660156 166.46875 87.261719 C 159.867188 136.160156 141.769531 167.660156 111.96875 181.761719 C 102.566406 220.960938 97.769531 262.761719 97.46875 307.261719 L 102.46875 307.261719 C 105.269531 272.261719 109.667969 255.960938 115.46875 258.261719 C 121.46875 256.761719 122.46875 273.160156 118.46875 307.261719 L 122.46875 307.261719 C 125.269531 272.261719 129.667969 255.960938 135.46875 258.261719 C 141.46875 256.761719 142.46875 273.160156 138.46875 307.261719 L 143.46875 307.261719 C 146.269531 272.261719 150.667969 255.960938 156.46875 258.261719 C 162.46875 256.761719 163.46875 273.160156 159.46875 307.261719 L 175.96875 307.261719 L 175.96875 201.761719 L 217.46875 201.761719 L 217.46875 307.261719 L 221.46875 307.261719 C 224.269531 272.261719 228.667969 255.960938 234.46875 258.261719 C 240.46875 256.761719 241.46875 273.160156 237.46875 307.261719 L 259.46875 307.261719 L 259.46875 17.761719 "/>
</g>
<path style=" stroke:none;fill-rule:nonzero;fill:rgb(11.799622%,32.199097%,64.299011%);fill-opacity:1;" d="M 94.96875 100.761719 C 94.96875 107.058594 92.769531 112.558594 88.269531 116.960938 C 83.769531 121.460938 78.269531 123.761719 71.96875 123.761719 L 57.96875 123.761719 L 57.96875 59.761719 L 71.96875 59.761719 C 78.269531 59.761719 83.769531 61.960938 88.269531 66.460938 C 92.769531 70.960938 94.96875 76.460938 94.96875 82.761719 Z M 159.96875 17.761719 C 156.367188 1.261719 143.769531 -3.738281 121.96875 2.761719 C 81.667969 12.160156 47.367188 17.359375 18.96875 18.761719 C 1.367188 72.960938 -4.03125 132.859375 2.96875 198.261719 C 7.269531 234.261719 14.96875 269.660156 25.96875 304.261719 L 48.46875 304.261719 C 43.96875 273.761719 41.96875 243.261719 42.46875 212.761719 C 42.566406 208.761719 45.769531 205.660156 51.96875 203.761719 C 74.46875 198.359375 94.46875 190.960938 111.96875 181.761719 C 125.269531 119.761719 132.367188 65.058594 133.46875 17.761719 "/>
<g clip-path="url(#clip2)" clip-rule="nonzero">
<path style=" stroke:none;fill-rule:nonzero;fill:rgb(11.799622%,32.199097%,64.299011%);fill-opacity:1;" d="M 339.867188 115.960938 C 339.867188 122.359375 337.667969 127.859375 333.167969 132.261719 C 328.769531 136.761719 323.269531 138.960938 316.867188 138.960938 L 302.867188 138.960938 L 302.867188 74.960938 L 316.867188 74.960938 C 323.269531 74.960938 328.769531 77.261719 333.167969 81.660156 C 337.667969 86.160156 339.867188 91.660156 339.867188 97.960938 Z M 378.367188 71.261719 C 371.867188 36.160156 353.066406 17.859375 321.96875 16.761719 L 268.46875 16.761719 L 268.46875 307.261719 L 273.96875 307.261719 C 276.769531 272.261719 281.066406 255.960938 286.96875 258.261719 C 292.96875 256.761719 293.96875 273.160156 289.96875 307.261719 L 293.96875 307.261719 C 296.769531 272.261719 301.066406 255.960938 306.96875 258.261719 C 312.96875 256.761719 313.96875 273.160156 309.96875 307.261719 L 338.867188 307.261719 C 339.46875 293.558594 338.167969 279.859375 334.96875 266.261719 L 325.96875 211.761719 C 337.066406 207.058594 346.269531 200.460938 353.367188 191.761719 C 377.566406 164.359375 385.96875 124.058594 378.367188 71.261719 "/>
</g>
</g>
</svg>
