<svg width="500" height="500" viewBox="0 0 500 500" fill="none" xmlns="http://www.w3.org/2000/svg">
<path d="M30 15C30 6.71572 23.2843 0 15 0C6.71572 0 0 6.71572 0 15C0 22.4868 5.48525 28.6925 12.6562 29.8178V19.3359H8.84766V15H12.6562V11.6953C12.6562 7.93594 14.8957 5.85938 18.322 5.85938C19.9626 5.85938 21.6797 6.15234 21.6797 6.15234V9.84375H19.7883C17.925 9.84375 17.3438 11.0001 17.3438 12.1875V15H21.5039L20.8389 19.3359H17.3438V29.8178C24.5147 28.6925 30 22.4868 30 15Z" fill="black"/>
<path d="M20.8389 19.3359L21.5039 15H17.3438V12.1875C17.3438 11.0013 17.925 9.84375 19.7883 9.84375H21.6797V6.15234C21.6797 6.15234 19.9632 5.85938 18.322 5.85938C14.8957 5.85938 12.6562 7.93594 12.6562 11.6953V15H8.84766V19.3359H12.6562V29.8178C14.2093 30.0607 15.7907 30.0607 17.3438 29.8178V19.3359H20.8389Z" fill="white"/>
<path d="M67 2.70117C71.0078 2.70117 71.4824 2.71875 73.0586 2.78906C74.5234 2.85352 75.3145 3.09961 75.8418 3.30469C76.5391 3.57422 77.043 3.90234 77.5645 4.42383C78.0918 4.95117 78.4141 5.44922 78.6836 6.14648C78.8887 6.67383 79.1348 7.4707 79.1992 8.92969C79.2695 10.5117 79.2871 10.9863 79.2871 14.9883C79.2871 18.9961 79.2695 19.4707 79.1992 21.0469C79.1348 22.5117 78.8887 23.3027 78.6836 23.8301C78.4141 24.5273 78.0859 25.0313 77.5645 25.5527C77.0371 26.0801 76.5391 26.4023 75.8418 26.6719C75.3145 26.877 74.5176 27.123 73.0586 27.1875C71.4766 27.2578 71.002 27.2754 67 27.2754C62.9922 27.2754 62.5176 27.2578 60.9414 27.1875C59.4766 27.123 58.6855 26.877 58.1582 26.6719C57.4609 26.4023 56.957 26.0742 56.4355 25.5527C55.9082 25.0254 55.5859 24.5273 55.3164 23.8301C55.1113 23.3027 54.8652 22.5059 54.8008 21.0469C54.7305 19.4648 54.7129 18.9902 54.7129 14.9883C54.7129 10.9805 54.7305 10.5059 54.8008 8.92969C54.8652 7.46484 55.1113 6.67383 55.3164 6.14648C55.5859 5.44922 55.9141 4.94531 56.4355 4.42383C56.9629 3.89648 57.4609 3.57422 58.1582 3.30469C58.6855 3.09961 59.4824 2.85352 60.9414 2.78906C62.5176 2.71875 62.9922 2.70117 67 2.70117ZM67 0C62.9277 0 62.418 0.0175781 60.8184 0.0878906C59.2246 0.158203 58.1289 0.416016 57.1797 0.785156C56.1895 1.17187 55.3516 1.68164 54.5195 2.51953C53.6816 3.35156 53.1719 4.18945 52.7852 5.17383C52.416 6.12891 52.1582 7.21875 52.0879 8.8125C52.0176 10.418 52 10.9277 52 15C52 19.0723 52.0176 19.582 52.0879 21.1816C52.1582 22.7754 52.416 23.8711 52.7852 24.8203C53.1719 25.8105 53.6816 26.6484 54.5195 27.4805C55.3516 28.3125 56.1895 28.8281 57.1738 29.209C58.1289 29.5781 59.2188 29.8359 60.8125 29.9062C62.4121 29.9766 62.9219 29.9941 66.9941 29.9941C71.0664 29.9941 71.5762 29.9766 73.1758 29.9062C74.7695 29.8359 75.8652 29.5781 76.8145 29.209C77.7988 28.8281 78.6367 28.3125 79.4688 27.4805C80.3008 26.6484 80.8164 25.8105 81.1973 24.8262C81.5664 23.8711 81.8242 22.7813 81.8945 21.1875C81.9648 19.5879 81.9824 19.0781 81.9824 15.0059C81.9824 10.9336 81.9648 10.4238 81.8945 8.82422C81.8242 7.23047 81.5664 6.13477 81.1973 5.18555C80.8281 4.18945 80.3184 3.35156 79.4805 2.51953C78.6484 1.6875 77.8105 1.17188 76.8262 0.791016C75.8711 0.421875 74.7813 0.164062 73.1875 0.09375C71.582 0.0175781 71.0723 0 67 0Z" fill="black"/>
<path d="M67 7.29492C62.7461 7.29492 59.2949 10.7461 59.2949 15C59.2949 19.2539 62.7461 22.7051 67 22.7051C71.2539 22.7051 74.7051 19.2539 74.7051 15C74.7051 10.7461 71.2539 7.29492 67 7.29492ZM67 19.998C64.2402 19.998 62.002 17.7598 62.002 15C62.002 12.2402 64.2402 10.002 67 10.002C69.7598 10.002 71.998 12.2402 71.998 15C71.998 17.7598 69.7598 19.998 67 19.998Z" fill="black"/>
<path d="M76.8086 6.99018C76.8086 7.98627 76 8.78901 75.0098 8.78901C74.0137 8.78901 73.2109 7.98041 73.2109 6.99018C73.2109 5.99408 74.0195 5.19135 75.0098 5.19135C76 5.19135 76.8086 5.99994 76.8086 6.99018Z" fill="black"/>
<g clip-path="url(#clip0_556_25)">
<path fill-rule="evenodd" clip-rule="evenodd" d="M119 0.625C115.439 0.626848 111.995 1.88807 109.284 4.18315C106.572 6.47823 104.77 9.65751 104.199 13.1525C103.629 16.6475 104.327 20.2303 106.17 23.2602C108.012 26.2902 110.879 28.5697 114.256 29.6912C115.001 29.8295 115.282 29.3677 115.282 28.975C115.282 28.5823 115.267 27.4438 115.262 26.199C111.089 27.1005 110.207 24.4381 110.207 24.4381C109.527 22.7093 108.543 22.2549 108.543 22.2549C107.182 21.3312 108.645 21.3485 108.645 21.3485C110.153 21.4547 110.945 22.8871 110.945 22.8871C112.281 25.1667 114.455 24.5073 115.309 24.122C115.443 23.1563 115.833 22.4994 116.263 22.1264C112.93 21.751 109.428 20.4717 109.428 14.7568C109.407 13.2746 109.96 11.8413 110.972 10.7534C110.818 10.378 110.304 8.86154 111.119 6.80179C111.119 6.80179 112.378 6.40169 115.245 8.33055C117.703 7.66203 120.297 7.66203 122.756 8.33055C125.62 6.40169 126.877 6.80179 126.877 6.80179C127.694 8.8566 127.18 10.373 127.026 10.7534C128.041 11.8415 128.596 13.2773 128.573 14.7617C128.573 20.489 125.063 21.751 121.725 22.119C122.262 22.5833 122.741 23.4897 122.741 24.8827C122.741 26.8782 122.724 28.4835 122.724 28.975C122.724 29.3726 122.994 29.8369 123.754 29.6912C127.132 28.5696 129.999 26.2896 131.841 23.2592C133.684 20.2287 134.382 16.6454 133.811 13.1501C133.24 9.65475 131.437 6.47544 128.724 4.18076C126.012 1.88607 122.567 0.625676 119.005 0.625H119Z" fill="black"/>
<path d="M109.68 22.04C109.648 22.1141 109.529 22.1364 109.432 22.0845C109.335 22.0326 109.263 21.9363 109.298 21.8597C109.333 21.7832 109.449 21.7634 109.546 21.8153C109.643 21.8672 109.718 21.9659 109.68 22.04Z" fill="black"/>
<path d="M110.289 22.7142C110.238 22.74 110.179 22.7472 110.123 22.7346C110.066 22.722 110.016 22.6903 109.981 22.6451C109.884 22.5414 109.864 22.3981 109.939 22.3339C110.013 22.2697 110.147 22.2993 110.244 22.4031C110.341 22.5068 110.364 22.65 110.289 22.7142Z" fill="black"/>
<path d="M110.88 23.5712C110.788 23.6354 110.632 23.5712 110.545 23.4428C110.521 23.4198 110.502 23.3921 110.489 23.3616C110.476 23.331 110.469 23.2982 110.469 23.265C110.469 23.2318 110.476 23.1989 110.489 23.1684C110.502 23.1378 110.521 23.1102 110.545 23.0872C110.637 23.0254 110.793 23.0872 110.88 23.2131C110.967 23.3391 110.97 23.507 110.88 23.5712Z" fill="black"/>
<path d="M111.683 24.4011C111.601 24.4924 111.434 24.4677 111.298 24.3443C111.161 24.2208 111.129 24.0528 111.211 23.9639C111.293 23.875 111.459 23.8997 111.601 24.0207C111.742 24.1417 111.769 24.3121 111.683 24.4011Z" fill="black"/>
<path d="M112.808 24.8851C112.77 25.0012 112.602 25.0531 112.433 25.0037C112.264 24.9543 112.152 24.816 112.184 24.6974C112.217 24.5789 112.388 24.5245 112.559 24.5789C112.731 24.6332 112.84 24.7641 112.808 24.8851Z" fill="black"/>
<path d="M114.035 24.9691C114.035 25.0901 113.896 25.1938 113.717 25.1963C113.538 25.1988 113.392 25.1 113.392 24.979C113.392 24.858 113.531 24.7542 113.71 24.7518C113.888 24.7493 114.035 24.8456 114.035 24.9691Z" fill="black"/>
<path d="M115.177 24.7789C115.2 24.8999 115.076 25.0259 114.897 25.0555C114.718 25.0851 114.561 25.0135 114.539 24.895C114.517 24.7764 114.646 24.648 114.82 24.6159C114.994 24.5838 115.155 24.6579 115.177 24.7789Z" fill="black"/>
</g>
<path fill-rule="evenodd" clip-rule="evenodd" d="M156.2 1H165.8C168.781 1 171.2 3.41906 171.2 6.40004C171.2 8.48904 170.012 10.302 168.275 11.2C170.012 12.0979 171.2 13.911 171.2 16C171.2 18.9809 168.781 21.4 165.8 21.4C164.104 21.4 162.59 20.6173 161.6 19.3936V25.6C161.6 28.5809 159.181 31 156.2 31C153.219 31 150.8 28.5809 150.8 25.6C150.8 23.511 151.988 21.6979 153.725 20.7999C151.988 19.902 150.8 18.0889 150.8 16C150.8 13.911 151.988 12.0979 153.725 11.2C151.988 10.302 150.8 8.48903 150.8 6.40004C150.8 3.41906 153.219 1 156.2 1ZM152 6.40004C152 4.08181 153.882 2.2 156.2 2.2H160.4V10.5999H156.2L156.187 10.5999C153.875 10.5929 152 8.7139 152 6.40004ZM160.4 15.9429C160.4 15.9619 160.4 15.9809 160.4 16C160.4 16.019 160.4 16.0381 160.4 16.0571V20.1999H156.2C153.882 20.2 152 18.3182 152 16C152 13.686 153.875 11.8069 156.187 11.7999L156.2 11.8H160.4L160.4 15.9429ZM161.6 16.0503V15.9497C161.627 13.6603 163.489 11.8092 165.783 11.8H165.8C165.804 11.8 165.809 11.8 165.813 11.7999C168.125 11.8069 170 13.686 170 16C170 18.3182 168.118 20.2 165.8 20.2C163.499 20.2 161.627 18.3454 161.6 16.0503ZM162.407 11.8C162.11 12.0397 161.84 12.3101 161.6 12.6063V11.8H162.407ZM165.813 10.5999C165.809 10.5999 165.804 10.5999 165.8 10.5999C165.793 10.5999 165.787 10.5999 165.78 10.6H161.6V2.2H165.8C168.118 2.2 170 4.08181 170 6.40004C170 8.7139 168.125 10.5929 165.813 10.5999ZM156.2 21.3999C153.882 21.3999 152 23.2817 152 25.6C152 27.9182 153.882 29.8 156.2 29.8C158.518 29.8 160.4 27.9182 160.4 25.6V21.3999H156.2Z" fill="black"/>
<path d="M19.269 50L20 50.7431L1.505 68.5L20 86.2569L19.269 87L0 68.5L19.269 50Z" fill="white"/>
<path d="M19.269 50L20 50.7431L1.505 68.5L20 86.2569L19.269 87L0 68.5L19.269 50Z" stroke="black"/>
<path d="M30.731 87L30 86.2569L48.495 68.5L30 50.7431L30.731 50L50 68.5L30.731 87Z" fill="white"/>
<path d="M30.731 87L30 86.2569L48.495 68.5L30 50.7431L30.731 50L50 68.5L30.731 87Z" stroke="black"/>
<path d="M120.44 50H116.977C116.668 50 116.417 50.2495 116.417 50.5572V64.0339C116.417 64.3416 116.668 64.5911 116.977 64.5911H120.44C120.749 64.5911 121 64.3416 121 64.0339V50.5572C121 50.2495 120.749 50 120.44 50Z" fill="white"/>
<path d="M114.023 50H110.56C110.251 50 110 50.2495 110 50.5572V64.0339C110 64.3416 110.251 64.5911 110.56 64.5911H114.023C114.333 64.5911 114.583 64.3416 114.583 64.0339V50.5572C114.583 50.2495 114.333 50 114.023 50Z" fill="white"/>
<path fill-rule="evenodd" clip-rule="evenodd" d="M89.2564 64.5651C89.1735 64.6198 89.0685 64.5852 89.022 64.4876C89.0076 64.4574 89.0001 64.424 89 64.39V50.2006C89 50.0912 89.077 50 89.1718 50C89.2014 50 89.231 50.0091 89.2564 50.0255L99.8245 56.9442C99.8784 56.9825 99.9227 57.0346 99.9533 57.0959C99.984 57.1572 100 57.2257 100 57.2953C100 57.3649 99.984 57.4335 99.9533 57.4947C99.9227 57.556 99.8784 57.6081 99.8245 57.6464L89.2555 64.5651H89.2564Z" fill="white"/>
<circle cx="57" cy="57" r="7" fill="white"/>
<circle cx="77" cy="57" r="5" stroke="white" stroke-width="4"/>
<circle cx="167.5" cy="67.5" r="17.5" fill="black"/>
<g clip-path="url(#clip1_556_25)">
<path d="M169.558 73.6457L169.542 66.8986L165.558 66.7645L165.084 73.4999C164.721 73.5649 164.45 73.8707 164.429 74.2391L163.97 78.3996C163.914 78.923 164.229 79.3811 164.652 79.3954L169.59 79.5592C170.016 79.5711 170.354 79.1423 170.34 78.6092L170.176 74.4423C170.186 74.0639 169.928 73.7311 169.559 73.6457L169.558 73.6457Z" fill="white"/>
<path d="M171.275 59.9893L164.668 59.7572C164.404 59.7501 164.157 59.6257 163.993 59.4183C163.656 58.9631 163.129 58.6881 162.562 58.6721C161.528 58.6385 160.662 59.4484 160.626 60.482L160.547 62.819C160.515 63.8521 161.324 64.7172 162.357 64.7551C162.922 64.7753 163.464 64.5376 163.833 64.1092C164.009 63.9127 164.265 63.8052 164.529 63.8165C164.676 63.8214 164.815 63.8845 164.915 63.9918C165.015 64.0991 165.069 64.242 165.064 64.389L165.017 65.7883L170.148 65.9611L170.188 64.5494C170.192 64.403 170.255 64.2641 170.362 64.1643C170.469 64.0645 170.611 64.011 170.758 64.0165L174.771 64.1517L174.778 63.736C174.808 62.7758 174.457 61.8416 173.8 61.1391C173.144 60.4367 172.235 60.0236 171.275 59.9895L171.275 59.9893Z" fill="white"/>
</g>
<path fill-rule="evenodd" clip-rule="evenodd" d="M215.872 64.8116C217.2 63.2436 218 61.2153 218 59C218 54.0294 213.971 50 209 50C204.029 50 200 54.0294 200 59C200 63.9706 204.029 68 209 68C211.215 68 213.244 67.1996 214.812 65.8723L217.47 68.5303C217.763 68.8232 218.237 68.8232 218.53 68.5303C218.823 68.2374 218.823 67.7626 218.53 67.4697L215.872 64.8116ZM216.5 59C216.5 63.1421 213.142 66.5 209 66.5C204.858 66.5 201.5 63.1421 201.5 59C201.5 54.8579 204.858 51.5 209 51.5C213.142 51.5 216.5 54.8579 216.5 59Z" fill="black"/>
<path fill-rule="evenodd" clip-rule="evenodd" d="M233.699 55L238.097 50.7847C239.161 49.7653 240.839 49.7653 241.903 50.7847L246.301 55H248.847C249.456 55 249.923 55.539 249.837 56.1414L248.368 66.4243C248.157 67.9022 246.891 69 245.398 69H234.602C233.109 69 231.843 67.9022 231.632 66.4243L230.163 56.1414C230.077 55.539 230.544 55 231.153 55H233.699ZM239.135 51.8677C239.619 51.4043 240.381 51.4043 240.865 51.8677L244.133 55H235.867L239.135 51.8677ZM231.73 56.5L233.117 66.2121C233.223 66.9511 233.855 67.5 234.602 67.5H245.398C246.145 67.5 246.777 66.9511 246.883 66.2121L248.27 56.5H231.73Z" fill="black"/>
<path fill-rule="evenodd" clip-rule="evenodd" d="M236 59.25C236.414 59.25 236.75 59.5858 236.75 60V64C236.75 64.4142 236.414 64.75 236 64.75C235.586 64.75 235.25 64.4142 235.25 64V60C235.25 59.5858 235.586 59.25 236 59.25Z" fill="black"/>
<path fill-rule="evenodd" clip-rule="evenodd" d="M240 59.25C240.414 59.25 240.75 59.5858 240.75 60V64C240.75 64.4142 240.414 64.75 240 64.75C239.586 64.75 239.25 64.4142 239.25 64V60C239.25 59.5858 239.586 59.25 240 59.25Z" fill="black"/>
<path fill-rule="evenodd" clip-rule="evenodd" d="M244 59.25C244.414 59.25 244.75 59.5858 244.75 60V64C244.75 64.4142 244.414 64.75 244 64.75C243.586 64.75 243.25 64.4142 243.25 64V60C243.25 59.5858 243.586 59.25 244 59.25Z" fill="black"/>
<path fill-rule="evenodd" clip-rule="evenodd" d="M259 58.5C260.933 58.5 262.5 56.933 262.5 55C262.5 53.067 260.933 51.5 259 51.5C257.067 51.5 255.5 53.067 255.5 55C255.5 56.933 257.067 58.5 259 58.5ZM259 60C261.761 60 264 57.7614 264 55C264 52.2386 261.761 50 259 50C256.239 50 254 52.2386 254 55C254 57.7614 256.239 60 259 60Z" fill="black"/>
<path fill-rule="evenodd" clip-rule="evenodd" d="M256 63.75C253.653 63.75 251.75 65.6528 251.75 68V69C251.75 69.4142 251.414 69.75 251 69.75C250.586 69.75 250.25 69.4142 250.25 69V68C250.25 64.8244 252.824 62.25 256 62.25H262C265.176 62.25 267.75 64.8244 267.75 68V69C267.75 69.4142 267.414 69.75 267 69.75C266.586 69.75 266.25 69.4142 266.25 69V68C266.25 65.6528 264.347 63.75 262 63.75H256Z" fill="black"/>
<defs>
<clipPath id="clip0_556_25">
<rect width="30" height="30" fill="white" transform="translate(104)"/>
</clipPath>
<clipPath id="clip1_556_25">
<rect width="22" height="22" fill="white" transform="translate(167.524 52.4524) rotate(46.9289)"/>
</clipPath>
</defs>
</svg>
