<svg width="500" height="500" viewBox="0 0 500 500" fill="none" xmlns="http://www.w3.org/2000/svg">
<path d="M40 20C40 8.9543 31.0457 0 20 0C8.9543 0 0 8.9543 0 20C0 29.9824 7.31367 38.2566 16.875 39.757V25.7813H11.7969V20H16.875V15.5938C16.875 10.5813 19.8609 7.8125 24.4293 7.8125C26.6168 7.8125 28.9062 8.20313 28.9062 8.20313V13.125H26.3844C23.9 13.125 23.125 14.6668 23.125 16.25V20H28.6719L27.7852 25.7813H23.125V39.757C32.6863 38.2566 40 29.9824 40 20Z" fill="black"/>
<path d="M27.7852 25.7812L28.6719 20H23.125V16.25C23.125 14.6684 23.9 13.125 26.3844 13.125H28.9062V8.20312C28.9062 8.20312 26.6176 7.8125 24.4293 7.8125C19.8609 7.8125 16.875 10.5813 16.875 15.5938V20H11.7969V25.7812H16.875V39.757C18.9457 40.081 21.0543 40.081 23.125 39.757V25.7812H27.7852Z" fill="white"/>
<path d="M72 3.60156C77.3438 3.60156 77.9766 3.625 80.0781 3.71875C82.0313 3.80469 83.0859 4.13281 83.7891 4.40625C84.7188 4.76563 85.3906 5.20313 86.0859 5.89844C86.7891 6.60156 87.2188 7.26563 87.5781 8.19531C87.8516 8.89844 88.1797 9.96094 88.2656 11.9063C88.3594 14.0156 88.3828 14.6484 88.3828 19.9844C88.3828 25.3281 88.3594 25.9609 88.2656 28.0625C88.1797 30.0156 87.8516 31.0703 87.5781 31.7734C87.2188 32.7031 86.7813 33.375 86.0859 34.0703C85.3828 34.7734 84.7188 35.2031 83.7891 35.5625C83.0859 35.8359 82.0234 36.1641 80.0781 36.25C77.9688 36.3438 77.3359 36.3672 72 36.3672C66.6563 36.3672 66.0234 36.3438 63.9219 36.25C61.9688 36.1641 60.9141 35.8359 60.2109 35.5625C59.2813 35.2031 58.6094 34.7656 57.9141 34.0703C57.2109 33.3672 56.7813 32.7031 56.4219 31.7734C56.1484 31.0703 55.8203 30.0078 55.7344 28.0625C55.6406 25.9531 55.6172 25.3203 55.6172 19.9844C55.6172 14.6406 55.6406 14.0078 55.7344 11.9063C55.8203 9.95312 56.1484 8.89844 56.4219 8.19531C56.7813 7.26563 57.2188 6.59375 57.9141 5.89844C58.6172 5.19531 59.2813 4.76563 60.2109 4.40625C60.9141 4.13281 61.9766 3.80469 63.9219 3.71875C66.0234 3.625 66.6563 3.60156 72 3.60156ZM72 0C66.5703 0 65.8906 0.0234375 63.7578 0.117188C61.6328 0.210938 60.1719 0.554687 58.9063 1.04687C57.5859 1.5625 56.4688 2.24219 55.3594 3.35938C54.2422 4.46875 53.5625 5.58594 53.0469 6.89844C52.5547 8.17188 52.2109 9.625 52.1172 11.75C52.0234 13.8906 52 14.5703 52 20C52 25.4297 52.0234 26.1094 52.1172 28.2422C52.2109 30.3672 52.5547 31.8281 53.0469 33.0938C53.5625 34.4141 54.2422 35.5313 55.3594 36.6406C56.4688 37.75 57.5859 38.4375 58.8984 38.9453C60.1719 39.4375 61.625 39.7813 63.75 39.875C65.8828 39.9688 66.5625 39.9922 71.9922 39.9922C77.4219 39.9922 78.1016 39.9688 80.2344 39.875C82.3594 39.7813 83.8203 39.4375 85.0859 38.9453C86.3984 38.4375 87.5156 37.75 88.625 36.6406C89.7344 35.5313 90.4219 34.4141 90.9297 33.1016C91.4219 31.8281 91.7656 30.375 91.8594 28.25C91.9531 26.1172 91.9766 25.4375 91.9766 20.0078C91.9766 14.5781 91.9531 13.8984 91.8594 11.7656C91.7656 9.64063 91.4219 8.17969 90.9297 6.91406C90.4375 5.58594 89.7578 4.46875 88.6406 3.35938C87.5313 2.25 86.4141 1.5625 85.1016 1.05469C83.8281 0.5625 82.375 0.21875 80.25 0.125C78.1094 0.0234375 77.4297 0 72 0Z" fill="black"/>
<path d="M72 9.72656C66.3281 9.72656 61.7266 14.3281 61.7266 20C61.7266 25.6719 66.3281 30.2734 72 30.2734C77.6719 30.2734 82.2734 25.6719 82.2734 20C82.2734 14.3281 77.6719 9.72656 72 9.72656ZM72 26.6641C68.3203 26.6641 65.3359 23.6797 65.3359 20C65.3359 16.3203 68.3203 13.3359 72 13.3359C75.6797 13.3359 78.6641 16.3203 78.6641 20C78.6641 23.6797 75.6797 26.6641 72 26.6641Z" fill="black"/>
<path d="M85.0781 9.32019C85.0781 10.6483 84 11.7186 82.6797 11.7186C81.3516 11.7186 80.2812 10.6405 80.2812 9.32019C80.2812 7.99207 81.3594 6.92175 82.6797 6.92175C84 6.92175 85.0781 7.99988 85.0781 9.32019Z" fill="black"/>
<g clip-path="url(#clip0_556_25)">
<path fill-rule="evenodd" clip-rule="evenodd" d="M124 0.833374C119.253 0.835837 114.66 2.51747 111.045 5.57758C107.429 8.63769 105.027 12.8767 104.266 17.5367C103.505 22.1967 104.437 26.9737 106.893 31.0137C109.35 35.0536 113.171 38.093 117.675 39.5883C118.668 39.7727 119.043 39.157 119.043 38.6334C119.043 38.1098 119.023 36.5917 119.016 34.9321C113.452 36.134 112.277 32.5842 112.277 32.5842C111.369 30.2791 110.058 29.6732 110.058 29.6732C108.243 28.4416 110.194 28.4647 110.194 28.4647C112.204 28.6063 113.26 30.5162 113.26 30.5162C115.042 33.5556 117.94 32.6764 119.079 32.1627C119.258 30.8751 119.778 29.9992 120.351 29.502C115.906 29.0014 111.237 27.2957 111.237 19.6757C111.209 17.6996 111.947 15.7885 113.297 14.3378C113.091 13.8373 112.406 11.8154 113.492 9.06909C113.492 9.06909 115.171 8.53563 118.993 11.1074C122.271 10.2161 125.73 10.2161 129.008 11.1074C132.826 8.53563 134.502 9.06909 134.502 9.06909C135.592 11.8088 134.906 13.8307 134.701 14.3378C136.055 15.7887 136.794 17.7031 136.764 19.6823C136.764 27.3187 132.085 29.0014 127.634 29.4921C128.349 30.1112 128.988 31.3197 128.988 33.1769C128.988 35.8376 128.965 37.9781 128.965 38.6334C128.965 39.1635 129.326 39.7826 130.339 39.5883C134.843 38.0928 138.665 35.0529 141.122 31.0123C143.578 26.9716 144.509 22.1939 143.748 17.5335C142.986 12.873 140.582 8.63397 136.966 5.57438C133.349 2.5148 128.756 0.834276 124.007 0.833374H124Z" fill="black"/>
<path d="M111.574 29.3867C111.531 29.4855 111.372 29.5151 111.243 29.4459C111.114 29.3768 111.018 29.2484 111.064 29.1463C111.11 29.0442 111.266 29.0179 111.395 29.087C111.524 29.1562 111.624 29.2879 111.574 29.3867Z" fill="black"/>
<path d="M112.385 30.2857C112.317 30.32 112.238 30.3296 112.163 30.3128C112.089 30.296 112.022 30.2538 111.975 30.1935C111.846 30.0552 111.819 29.8642 111.918 29.7786C112.018 29.693 112.197 29.7325 112.326 29.8708C112.455 30.0091 112.485 30.2001 112.385 30.2857Z" fill="black"/>
<path d="M113.174 31.4283C113.051 31.5139 112.843 31.4283 112.727 31.257C112.695 31.2263 112.669 31.1895 112.652 31.1487C112.634 31.108 112.625 31.0642 112.625 31.0199C112.625 30.9757 112.634 30.9319 112.652 30.8911C112.669 30.8504 112.695 30.8136 112.727 30.7828C112.849 30.7005 113.058 30.7828 113.174 30.9508C113.29 31.1187 113.293 31.3426 113.174 31.4283V31.4283Z" fill="black"/>
<path d="M114.243 32.5347C114.134 32.6566 113.912 32.6237 113.73 32.459C113.548 32.2944 113.505 32.0704 113.614 31.9519C113.723 31.8333 113.945 31.8663 114.134 32.0276C114.323 32.189 114.359 32.4162 114.243 32.5347V32.5347Z" fill="black"/>
<path d="M115.744 33.1802C115.694 33.3349 115.469 33.4041 115.244 33.3382C115.018 33.2724 114.869 33.0879 114.912 32.9299C114.955 32.7718 115.184 32.6994 115.413 32.7718C115.641 32.8443 115.787 33.0188 115.744 33.1802Z" fill="black"/>
<path d="M117.38 33.2922C117.38 33.4535 117.194 33.5918 116.956 33.5951C116.717 33.5984 116.522 33.4667 116.522 33.3053C116.522 33.144 116.707 33.0057 116.946 33.0024C117.184 32.9991 117.38 33.1275 117.38 33.2922Z" fill="black"/>
<path d="M118.903 33.0386C118.933 33.2 118.767 33.3679 118.529 33.4074C118.29 33.4469 118.082 33.3514 118.052 33.1934C118.022 33.0353 118.194 32.8641 118.426 32.8213C118.658 32.7785 118.873 32.8773 118.903 33.0386Z" fill="black"/>
</g>
<path fill-rule="evenodd" clip-rule="evenodd" d="M157.6 0H170.4C174.374 0 177.6 3.22542 177.6 7.20005C177.6 9.98538 176.016 12.4027 173.7 13.5999C176.016 14.7972 177.6 17.2146 177.6 20C177.6 23.9746 174.374 27.2 170.4 27.2C168.139 27.2 166.12 26.1564 164.8 24.5248V32.7999C164.8 36.7746 161.575 40 157.6 40C153.625 40 150.4 36.7746 150.4 32.7999C150.4 30.0146 151.984 27.5972 154.3 26.3999C151.984 25.2027 150.4 22.7853 150.4 20C150.4 17.2146 151.984 14.7972 154.3 13.5999C151.984 12.4027 150.4 9.98538 150.4 7.20005C150.4 3.22542 153.625 0 157.6 0ZM152 7.20005C152 4.10908 154.509 1.6 157.6 1.6H163.2V12.7999H157.6L157.583 12.7999C154.5 12.7905 152 10.2852 152 7.20005ZM163.2 19.9238C163.2 19.9492 163.2 19.9745 163.2 20C163.2 20.0254 163.2 20.0507 163.2 20.0761V25.5998H157.6C154.509 25.6 152 23.0909 152 20C152 16.9147 154.5 14.4092 157.583 14.3999L157.6 14.3999H163.2L163.2 19.9238ZM164.8 20.067V19.9329C164.836 16.8804 167.319 14.4122 170.377 14.3999H170.4C170.406 14.3999 170.411 14.3999 170.417 14.3999C173.5 14.4092 176 16.9147 176 20C176 23.0909 173.491 25.6 170.4 25.6C167.331 25.6 164.836 23.1271 164.8 20.067ZM165.875 14.3999C165.48 14.7196 165.12 15.0801 164.8 15.4751V14.3999H165.875ZM170.417 12.7999C170.411 12.7999 170.406 12.7999 170.4 12.7999C170.391 12.7999 170.382 12.7999 170.374 12.7999H164.8V1.6H170.4C173.491 1.6 176 4.10908 176 7.20005C176 10.2852 173.5 12.7905 170.417 12.7999ZM157.6 27.1999C154.509 27.1999 152 29.709 152 32.7999C152 35.8909 154.509 38.4 157.6 38.4C160.691 38.4 163.2 35.8909 163.2 32.7999V27.1999H157.6Z" fill="black"/>
<defs>
<clipPath id="clip0_556_25">
<rect width="40" height="40" fill="white" transform="translate(104)"/>
</clipPath>
</defs>
</svg>
