<svg width="500" height="500" viewBox="0 0 500 500" fill="none" xmlns="http://www.w3.org/2000/svg">
<path d="M30 15C30 6.71572 23.2843 0 15 0C6.71572 0 0 6.71572 0 15C0 22.4868 5.48525 28.6925 12.6562 29.8178V19.3359H8.84766V15H12.6562V11.6953C12.6562 7.93594 14.8957 5.85938 18.322 5.85938C19.9626 5.85938 21.6797 6.15234 21.6797 6.15234V9.84375H19.7883C17.925 9.84375 17.3438 11.0001 17.3438 12.1875V15H21.5039L20.8389 19.3359H17.3438V29.8178C24.5147 28.6925 30 22.4868 30 15Z" fill="black"/>
<path d="M20.8389 19.3359L21.5039 15H17.3438V12.1875C17.3438 11.0013 17.925 9.84375 19.7883 9.84375H21.6797V6.15234C21.6797 6.15234 19.9632 5.85938 18.322 5.85938C14.8957 5.85938 12.6562 7.93594 12.6562 11.6953V15H8.84766V19.3359H12.6562V29.8178C14.2093 30.0607 15.7907 30.0607 17.3438 29.8178V19.3359H20.8389Z" fill="white"/>
<path d="M67 2.70117C71.0078 2.70117 71.4824 2.71875 73.0586 2.78906C74.5234 2.85352 75.3145 3.09961 75.8418 3.30469C76.5391 3.57422 77.043 3.90234 77.5645 4.42383C78.0918 4.95117 78.4141 5.44922 78.6836 6.14648C78.8887 6.67383 79.1348 7.4707 79.1992 8.92969C79.2695 10.5117 79.2871 10.9863 79.2871 14.9883C79.2871 18.9961 79.2695 19.4707 79.1992 21.0469C79.1348 22.5117 78.8887 23.3027 78.6836 23.8301C78.4141 24.5273 78.0859 25.0313 77.5645 25.5527C77.0371 26.0801 76.5391 26.4023 75.8418 26.6719C75.3145 26.877 74.5176 27.123 73.0586 27.1875C71.4766 27.2578 71.002 27.2754 67 27.2754C62.9922 27.2754 62.5176 27.2578 60.9414 27.1875C59.4766 27.123 58.6855 26.877 58.1582 26.6719C57.4609 26.4023 56.957 26.0742 56.4355 25.5527C55.9082 25.0254 55.5859 24.5273 55.3164 23.8301C55.1113 23.3027 54.8652 22.5059 54.8008 21.0469C54.7305 19.4648 54.7129 18.9902 54.7129 14.9883C54.7129 10.9805 54.7305 10.5059 54.8008 8.92969C54.8652 7.46484 55.1113 6.67383 55.3164 6.14648C55.5859 5.44922 55.9141 4.94531 56.4355 4.42383C56.9629 3.89648 57.4609 3.57422 58.1582 3.30469C58.6855 3.09961 59.4824 2.85352 60.9414 2.78906C62.5176 2.71875 62.9922 2.70117 67 2.70117ZM67 0C62.9277 0 62.418 0.0175781 60.8184 0.0878906C59.2246 0.158203 58.1289 0.416016 57.1797 0.785156C56.1895 1.17187 55.3516 1.68164 54.5195 2.51953C53.6816 3.35156 53.1719 4.18945 52.7852 5.17383C52.416 6.12891 52.1582 7.21875 52.0879 8.8125C52.0176 10.418 52 10.9277 52 15C52 19.0723 52.0176 19.582 52.0879 21.1816C52.1582 22.7754 52.416 23.8711 52.7852 24.8203C53.1719 25.8105 53.6816 26.6484 54.5195 27.4805C55.3516 28.3125 56.1895 28.8281 57.1738 29.209C58.1289 29.5781 59.2188 29.8359 60.8125 29.9062C62.4121 29.9766 62.9219 29.9941 66.9941 29.9941C71.0664 29.9941 71.5762 29.9766 73.1758 29.9062C74.7695 29.8359 75.8652 29.5781 76.8145 29.209C77.7988 28.8281 78.6367 28.3125 79.4688 27.4805C80.3008 26.6484 80.8164 25.8105 81.1973 24.8262C81.5664 23.8711 81.8242 22.7813 81.8945 21.1875C81.9648 19.5879 81.9824 19.0781 81.9824 15.0059C81.9824 10.9336 81.9648 10.4238 81.8945 8.82422C81.8242 7.23047 81.5664 6.13477 81.1973 5.18555C80.8281 4.18945 80.3184 3.35156 79.4805 2.51953C78.6484 1.6875 77.8105 1.17188 76.8262 0.791016C75.8711 0.421875 74.7813 0.164063 73.1875 0.09375C71.582 0.0175781 71.0723 0 67 0Z" fill="black"/>
<path d="M67 7.29492C62.7461 7.29492 59.2949 10.7461 59.2949 15C59.2949 19.2539 62.7461 22.7051 67 22.7051C71.2539 22.7051 74.7051 19.2539 74.7051 15C74.7051 10.7461 71.2539 7.29492 67 7.29492ZM67 19.998C64.2402 19.998 62.002 17.7598 62.002 15C62.002 12.2402 64.2402 10.002 67 10.002C69.7598 10.002 71.998 12.2402 71.998 15C71.998 17.7598 69.7598 19.998 67 19.998Z" fill="black"/>
<path d="M76.8086 6.99024C76.8086 7.98633 76 8.78907 75.0098 8.78907C74.0137 8.78907 73.2109 7.98047 73.2109 6.99024C73.2109 5.99414 74.0195 5.19141 75.0098 5.19141C76 5.19141 76.8086 6 76.8086 6.99024Z" fill="black"/>
<g clip-path="url(#clip0_556_25)">
<path fill-rule="evenodd" clip-rule="evenodd" d="M119 0.625C115.439 0.626848 111.995 1.88807 109.284 4.18315C106.572 6.47823 104.77 9.65751 104.199 13.1525C103.629 16.6475 104.327 20.2303 106.17 23.2602C108.012 26.2902 110.879 28.5697 114.256 29.6912C115.001 29.8295 115.282 29.3677 115.282 28.975C115.282 28.5823 115.267 27.4438 115.262 26.199C111.089 27.1005 110.207 24.4381 110.207 24.4381C109.527 22.7093 108.543 22.2549 108.543 22.2549C107.182 21.3312 108.645 21.3485 108.645 21.3485C110.153 21.4547 110.945 22.8871 110.945 22.8871C112.281 25.1667 114.455 24.5073 115.309 24.122C115.443 23.1563 115.833 22.4994 116.263 22.1264C112.93 21.751 109.428 20.4717 109.428 14.7568C109.407 13.2746 109.96 11.8413 110.972 10.7534C110.818 10.378 110.304 8.86154 111.119 6.80179C111.119 6.80179 112.378 6.40169 115.245 8.33055C117.703 7.66203 120.297 7.66203 122.756 8.33055C125.62 6.40169 126.877 6.80179 126.877 6.80179C127.694 8.8566 127.18 10.373 127.026 10.7534C128.041 11.8415 128.596 13.2773 128.573 14.7617C128.573 20.489 125.063 21.751 121.725 22.119C122.262 22.5833 122.741 23.4897 122.741 24.8827C122.741 26.8782 122.724 28.4835 122.724 28.975C122.724 29.3726 122.994 29.8369 123.754 29.6912C127.132 28.5696 129.999 26.2896 131.841 23.2592C133.684 20.2287 134.382 16.6454 133.811 13.1501C133.24 9.65475 131.437 6.47544 128.724 4.18076C126.012 1.88607 122.567 0.625676 119.005 0.625H119Z" fill="black"/>
<path d="M109.68 22.04C109.648 22.1141 109.529 22.1364 109.432 22.0845C109.335 22.0326 109.263 21.9363 109.298 21.8597C109.333 21.7832 109.449 21.7634 109.546 21.8153C109.643 21.8672 109.718 21.9659 109.68 22.04Z" fill="black"/>
<path d="M110.289 22.7142C110.238 22.7399 110.179 22.7471 110.123 22.7345C110.066 22.7219 110.016 22.6903 109.981 22.645C109.884 22.5413 109.864 22.398 109.939 22.3338C110.013 22.2696 110.147 22.2993 110.244 22.403C110.341 22.5067 110.364 22.65 110.289 22.7142Z" fill="black"/>
<path d="M110.88 23.5712C110.788 23.6354 110.632 23.5712 110.545 23.4428C110.521 23.4198 110.502 23.3921 110.489 23.3616C110.476 23.331 110.469 23.2982 110.469 23.265C110.469 23.2318 110.476 23.1989 110.489 23.1684C110.502 23.1378 110.521 23.1102 110.545 23.0872C110.637 23.0254 110.793 23.0872 110.88 23.2131C110.967 23.3391 110.97 23.507 110.88 23.5712V23.5712Z" fill="black"/>
<path d="M111.683 24.4011C111.601 24.4924 111.434 24.4677 111.298 24.3443C111.161 24.2208 111.129 24.0528 111.211 23.9639C111.293 23.875 111.459 23.8997 111.601 24.0207C111.742 24.1417 111.769 24.3121 111.683 24.4011V24.4011Z" fill="black"/>
<path d="M112.808 24.8851C112.77 25.0012 112.602 25.0531 112.433 25.0037C112.264 24.9543 112.152 24.816 112.184 24.6974C112.217 24.5789 112.388 24.5245 112.559 24.5789C112.731 24.6332 112.84 24.7641 112.808 24.8851Z" fill="black"/>
<path d="M114.035 24.9691C114.035 25.0901 113.896 25.1938 113.717 25.1963C113.538 25.1988 113.392 25.1 113.392 24.979C113.392 24.858 113.531 24.7542 113.71 24.7518C113.888 24.7493 114.035 24.8456 114.035 24.9691Z" fill="black"/>
<path d="M115.177 24.7789C115.2 24.8999 115.076 25.0259 114.897 25.0555C114.718 25.0851 114.561 25.0135 114.539 24.895C114.517 24.7764 114.646 24.648 114.82 24.6159C114.994 24.5838 115.155 24.6579 115.177 24.7789Z" fill="black"/>
</g>
<path fill-rule="evenodd" clip-rule="evenodd" d="M154.2 0H163.8C166.781 0 169.2 2.41906 169.2 5.40004C169.2 7.48904 168.012 9.30201 166.275 10.2C168.012 11.0979 169.2 12.911 169.2 15C169.2 17.9809 166.781 20.4 163.8 20.4C162.104 20.4 160.59 19.6173 159.6 18.3936V24.6C159.6 27.5809 157.181 30 154.2 30C151.219 30 148.8 27.5809 148.8 24.6C148.8 22.511 149.988 20.6979 151.725 19.7999C149.988 18.902 148.8 17.0889 148.8 15C148.8 12.911 149.988 11.0979 151.725 10.2C149.988 9.30201 148.8 7.48903 148.8 5.40004C148.8 2.41906 151.219 0 154.2 0ZM150 5.40004C150 3.08181 151.882 1.2 154.2 1.2H158.4V9.59993H154.2L154.187 9.59994C151.875 9.59291 150 7.7139 150 5.40004ZM158.4 14.9428C158.4 14.9619 158.4 14.9809 158.4 15C158.4 15.019 158.4 15.0381 158.4 15.0571V19.1999H154.2C151.882 19.2 150 17.3182 150 15C150 12.686 151.875 10.8069 154.187 10.7999L154.2 10.8H158.4L158.4 14.9428ZM159.6 15.0503V14.9497C159.627 12.6603 161.489 10.8092 163.783 10.8H163.8C163.804 10.8 163.809 10.8 163.813 10.7999C166.125 10.8069 168 12.686 168 15C168 17.3182 166.118 19.2 163.8 19.2C161.499 19.2 159.627 17.3454 159.6 15.0503ZM160.407 10.8C160.11 11.0397 159.84 11.3101 159.6 11.6063V10.8H160.407ZM163.813 9.59994C163.809 9.59993 163.804 9.59993 163.8 9.59993C163.793 9.59993 163.787 9.59994 163.78 9.59996H159.6V1.2H163.8C166.118 1.2 168 3.08181 168 5.40004C168 7.7139 166.125 9.59291 163.813 9.59994ZM154.2 20.3999C151.882 20.3999 150 22.2817 150 24.6C150 26.9182 151.882 28.8 154.2 28.8C156.518 28.8 158.4 26.9182 158.4 24.6V20.3999H154.2Z" fill="black"/>
<defs>
<clipPath id="clip0_556_25">
<rect width="30" height="30" fill="white" transform="translate(104)"/>
</clipPath>
</defs>
</svg>
